<svg width="37" height="37" viewBox="0 0 37 37" fill="none" xmlns="http://www.w3.org/2000/svg">
<g id="edit">
<circle id="Ellipse 17" cx="18.5" cy="18.5" r="18.5" fill="#F5F5F5"/>
<path id="Vector" d="M15.0953 26.0953L23.9186 17.272L19.7277 13.0811L10.9044 21.9044C10.7829 22.026 10.6966 22.1782 10.6547 22.3449L9.67676 27.3229L14.6538 26.345C14.8209 26.3032 14.9738 26.2168 15.0953 26.0953ZM26.7669 14.4236C27.1229 14.0675 27.3229 13.5846 27.3229 13.0811C27.3229 12.5776 27.1229 12.0947 26.7669 11.7386L25.2611 10.2327C24.905 9.87674 24.4221 9.67676 23.9186 9.67676C23.4151 9.67676 22.9321 9.87674 22.576 10.2327L21.0702 11.7386L25.2611 15.9295L26.7669 14.4236Z" fill="#00ABFC"/>
</g>
</svg>
