<svg width="25" height="25" viewBox="0 0 25 25" fill="none" xmlns="http://www.w3.org/2000/svg">
<g id="Group">
<path id="Vector" fill-rule="evenodd" clip-rule="evenodd" d="M6.25 8.33337C6.25 6.67577 6.90848 5.08606 8.08058 3.91396C9.25269 2.74185 10.8424 2.08337 12.5 2.08337C14.1576 2.08337 15.7473 2.74185 16.9194 3.91396C18.0915 5.08606 18.75 6.67577 18.75 8.33337H19.7917C20.3442 8.33337 20.8741 8.55287 21.2648 8.94357C21.6555 9.33427 21.875 9.86417 21.875 10.4167V20.8334C21.875 21.3859 21.6555 21.9158 21.2648 22.3065C20.8741 22.6972 20.3442 22.9167 19.7917 22.9167H5.20833C4.6558 22.9167 4.12589 22.6972 3.73519 22.3065C3.34449 21.9158 3.125 21.3859 3.125 20.8334V10.4167C3.125 9.86417 3.34449 9.33427 3.73519 8.94357C4.12589 8.55287 4.6558 8.33337 5.20833 8.33337H6.25ZM12.5 4.16671C13.6051 4.16671 14.6649 4.60569 15.4463 5.3871C16.2277 6.1685 16.6667 7.2283 16.6667 8.33337H8.33333C8.33333 7.2283 8.77232 6.1685 9.55372 5.3871C10.3351 4.60569 11.3949 4.16671 12.5 4.16671ZM14.5833 14.5834C14.5833 14.9491 14.4871 15.3083 14.3042 15.625C14.1214 15.9417 13.8584 16.2047 13.5417 16.3875V17.7084C13.5417 17.9846 13.4319 18.2496 13.2366 18.4449C13.0412 18.6403 12.7763 18.75 12.5 18.75C12.2237 18.75 11.9588 18.6403 11.7634 18.4449C11.5681 18.2496 11.4583 17.9846 11.4583 17.7084V16.3875C11.0612 16.1582 10.7508 15.8043 10.5753 15.3806C10.3998 14.9569 10.3691 14.4871 10.4877 14.0442C10.6064 13.6012 10.868 13.2098 11.2318 12.9306C11.5956 12.6514 12.0414 12.5001 12.5 12.5C13.0525 12.5 13.5824 12.7195 13.9731 13.1102C14.3638 13.5009 14.5833 14.0308 14.5833 14.5834Z" fill="#00ABFC"/>
</g>
</svg>
