<svg width="20" height="20" viewBox="0 0 20 20" fill="none" xmlns="http://www.w3.org/2000/svg">
<g id="octicon:search-16">
<path id="Vector" d="M13.3502 14.675C11.8432 15.8448 9.94698 16.3963 8.04765 16.2172C6.14831 16.0382 4.38858 15.1421 3.12666 13.7113C1.86474 12.2806 1.19549 10.4227 1.25513 8.51586C1.31478 6.60904 2.09883 4.79661 3.4477 3.4475C4.79681 2.09864 6.60924 1.31458 8.51606 1.25494C10.4229 1.19529 12.2808 1.86454 13.7115 3.12646C15.1423 4.38838 16.0384 6.14811 16.2174 8.04745C16.3965 9.94678 15.845 11.843 14.6752 13.35L18.4752 17.15C18.5986 17.2646 18.6888 17.4103 18.7363 17.5719C18.7839 17.7335 18.7869 17.9049 18.7452 18.068C18.7035 18.2312 18.6185 18.38 18.4993 18.499C18.3801 18.6179 18.231 18.7025 18.0677 18.7438C17.9047 18.7854 17.7335 18.7824 17.5721 18.7351C17.4107 18.6878 17.265 18.598 17.1502 18.475L13.3502 14.675ZM14.3752 8.75C14.3863 8.00451 14.2491 7.26425 13.9715 6.57228C13.6939 5.88031 13.2815 5.25044 12.7582 4.71933C12.2349 4.18821 11.6113 3.76644 10.9235 3.47855C10.2358 3.19067 9.49765 3.04241 8.75208 3.04241C8.0065 3.04241 7.26837 3.19067 6.58061 3.47855C5.89286 3.76644 5.26921 4.18821 4.74595 4.71933C4.2227 5.25044 3.81027 5.88031 3.53267 6.57228C3.25507 7.26425 3.11784 8.00451 3.12895 8.75C3.15097 10.2268 3.75309 11.6357 4.80524 12.6723C5.85739 13.7089 7.27509 14.2899 8.75208 14.2899C10.2291 14.2899 11.6468 13.7089 12.6989 12.6723C13.7511 11.6357 14.3532 10.2268 14.3752 8.75Z" fill="#8C8C8C"/>
</g>
</svg>
