<svg width="25" height="25" viewBox="0 0 25 25" fill="none" xmlns="http://www.w3.org/2000/svg">
<path fill-rule="evenodd" clip-rule="evenodd" d="M12.5 2.08337C13.6365 2.08337 14.7052 2.38754 15.625 2.92087C15.7495 2.98599 15.8595 3.07562 15.9485 3.18437C16.0374 3.29311 16.1034 3.41872 16.1426 3.55365C16.1817 3.68857 16.1932 3.83002 16.1762 3.96949C16.1593 4.10895 16.1143 4.24354 16.044 4.36517C15.9737 4.4868 15.8795 4.59296 15.7671 4.67724C15.6547 4.76153 15.5264 4.82221 15.39 4.85564C15.2535 4.88906 15.1117 4.89454 14.9731 4.87173C14.8345 4.84893 14.7019 4.79833 14.5833 4.72296C13.9498 4.35717 13.2311 4.16464 12.4995 4.16473C11.7679 4.16482 11.0493 4.35752 10.4158 4.72345C9.78234 5.08939 9.25638 5.61566 8.89082 6.24935C8.52526 6.88304 8.33299 7.6018 8.33333 8.33337L19.7917 8.33442C20.3442 8.33442 20.8741 8.55391 21.2648 8.94461C21.6555 9.33531 21.875 9.86521 21.875 10.4177V20.8344C21.875 21.3869 21.6555 21.9169 21.2648 22.3076C20.8741 22.6983 20.3442 22.9177 19.7917 22.9177H5.20833C4.6558 22.9177 4.12589 22.6983 3.73519 22.3076C3.34449 21.9169 3.125 21.3869 3.125 20.8344V10.4167C3.125 9.86417 3.34449 9.33427 3.73519 8.94357C4.12589 8.55287 4.6558 8.33337 5.20833 8.33337H6.25C6.25 6.67577 6.90848 5.08606 8.08058 3.91396C9.25269 2.74185 10.8424 2.08337 12.5 2.08337ZM12.5 12.5C12.0414 12.5001 11.5956 12.6514 11.2318 12.9306C10.868 13.2098 10.6064 13.6012 10.4877 14.0442C10.3691 14.4871 10.3998 14.9569 10.5753 15.3806C10.7508 15.8043 11.0612 16.1582 11.4583 16.3875V17.7084C11.4583 17.9846 11.5681 18.2496 11.7634 18.4449C11.9588 18.6403 12.2237 18.75 12.5 18.75C12.7763 18.75 13.0412 18.6403 13.2366 18.4449C13.4319 18.2496 13.5417 17.9846 13.5417 17.7084V16.3875C13.9388 16.1582 14.2492 15.8043 14.4247 15.3806C14.6002 14.9569 14.6309 14.4871 14.5123 14.0442C14.3936 13.6012 14.132 13.2098 13.7682 12.9306C13.4044 12.6514 12.9586 12.5001 12.5 12.5ZM20.7479 5.23025L21.7542 5.50108C22.0107 5.5814 22.2263 5.7578 22.3558 5.9934C22.4853 6.229 22.5187 6.50554 22.449 6.7652C22.3793 7.02485 22.212 7.24751 21.9819 7.3866C21.7518 7.52569 21.4769 7.57044 21.2146 7.5115L20.2094 7.24275C19.9436 7.17031 19.7174 6.99558 19.5802 6.75678C19.443 6.51798 19.4059 6.23455 19.4771 5.96848C19.5483 5.70242 19.7219 5.47538 19.9601 5.33703C20.1983 5.19869 20.4815 5.16029 20.7479 5.23025ZM19.4094 2.17712C19.5415 2.21254 19.6654 2.27364 19.7739 2.35694C19.8825 2.44024 19.9735 2.5441 20.0419 2.66259C20.1103 2.78109 20.1547 2.9119 20.1725 3.04754C20.1903 3.18319 20.1813 3.32102 20.1458 3.45317L20.0115 3.95525C19.9766 4.08795 19.9159 4.21246 19.8328 4.32163C19.7497 4.4308 19.6458 4.52248 19.5272 4.59139C19.4085 4.66031 19.2775 4.70511 19.1415 4.72322C19.0055 4.74133 18.8672 4.7324 18.7347 4.69693C18.6021 4.66146 18.4779 4.60016 18.3691 4.51655C18.2604 4.43293 18.1692 4.32865 18.1008 4.2097C18.0324 4.09074 17.9882 3.95945 17.9708 3.82336C17.9533 3.68728 17.9629 3.54908 17.999 3.41671L18.1344 2.91358C18.2059 2.64692 18.3804 2.41957 18.6195 2.28148C18.8585 2.14338 19.1426 2.10585 19.4094 2.17712Z" fill="#00ABFC"/>
</svg>
